<?xml version="1.0" encoding="utf-8"?>
<svg width="462" height="161" viewBox="0 0 462 161" fill="none" xmlns="http://www.w3.org/2000/svg">
  <defs>
    <clipPath id="clip_path_1">
      <rect width="462" height="161" />
    </clipPath>
  </defs>
  <g clip-path="url(#clip_path_1)">
    <rect width="462" height="161" fill="#FFFFFF" fill-rule="evenodd" fill-opacity="0" />
    <g transform="translate(-201 -175)">
      <path d="M44.47 42.6898L44.47 5.25192L42.99 4.41803L27.01 42.6898L21.05 42.6898L5 4.41803L3.51999 5.25192L3.51999 42.6898L0 42.6898L0 0L7.32999 0L24.06 40.6138L40.8 0L47.98 0L47.98 42.6898L44.47 42.6898L44.47 42.6898Z" fill="#000000" fill-rule="evenodd" transform="translate(299.04 234.155)" />
      <path d="M29.38 42.6898L16.45 24.5298L3.59 24.5298L3.59 42.6898L0 42.6898L0 0C0 0 19.25 0 19.25 0C28.74 0 34.4 4.35593 34.4 11.6572C34.4 11.6572 34.4 12.8016 34.4 12.8016C34.4 19.2335 30.25 23.3144 22.7 24.2814C22.7 24.2814 20.49 24.5653 20.49 24.5653L33.56 42.681L29.37 42.681L29.38 42.6898ZM3.57996 22.1167C3.57996 22.1167 18.95 22.1167 18.95 22.1167C26.2799 22.1167 30.6599 18.6391 30.6599 12.8105C30.6599 12.8105 30.6599 11.666 30.6599 11.666C30.6599 5.88182 26.2799 2.42191 18.95 2.42191C18.95 2.42191 3.57996 2.42191 3.57996 2.42191L3.57996 22.1167L3.57996 22.1167Z" fill="#000000" transform="translate(369.72 234.155)" />
      <path d="M15.52 42.6898L15.52 2.41306L0 2.41306L0 0L34.76 0L34.76 2.41306L19.18 2.41306L19.18 42.6898L15.52 42.6898L15.52 42.6898Z" fill="#000000" fill-rule="evenodd" transform="translate(567.02 234.155)" />
      <rect width="3.66" height="42.69" fill="#000000" fill-rule="evenodd" transform="translate(620.39 234.155)" />
      <path d="M35.76 42.6898L30.55 29.3825L14.36 29.3825L15.62 26.1355L29.28 26.1355L19.64 1.49928L3.68001 42.6898L0 42.6898L17.29 0L22.22 0L39.51 42.6898L35.76 42.6898L35.76 42.6898Z" fill="#000000" fill-rule="evenodd" transform="translate(239.95 234.155)" />
      <path d="M35.76 42.6898L30.55 29.3825L14.36 29.3825L15.62 26.1355L29.28 26.1355L19.64 1.49928L3.67999 42.6898L0 42.6898L17.29 0L22.22 0L39.51 42.6898L35.76 42.6898L35.76 42.6898Z" fill="#000000" fill-rule="evenodd" transform="translate(518.95 234.155)" />
      <path d="M0 42.6898L17.29 0L20.16 0L18.96 3.25583L3.67999 42.6898L0 42.6898L0 42.6898Z" fill="#000000" fill-rule="evenodd" transform="translate(419.42 234.155)" />
      <path d="M13.84 39.5226L0 4.14299L1.41 0.496811L1.59 0L17.59 39.5226L13.84 39.5226L13.84 39.5226Z" fill="#000000" fill-rule="evenodd" transform="translate(441.34 237.322)" />
      <path d="M0 42.6898L1.19 39.4339L16.47 0L20.15 0L2.87 42.6898L0 42.6898L0 42.6898Z" fill="#000000" fill-rule="evenodd" transform="translate(488.78 234.155)" />
      <path d="M0 0L3.75998 0L17.6 35.3797L16.19 39.0259L16.01 39.5227L0 0L0 0Z" fill="#000000" fill-rule="evenodd" transform="translate(469.42 234.155)" />
    </g>
  </g>
</svg>