<?xml version="1.0" encoding="UTF-8"?>
<svg id="Layer_1" data-name="Layer 1" xmlns="http://www.w3.org/2000/svg" viewBox="0 0 864 576">
  <defs>
    <style>
      .cls-1 {
        fill: #000;
        stroke-width: 0px;
      }
    </style>
  </defs>
  <polygon class="cls-1" points="343.51 312.06 343.51 269.86 342.03 268.92 326.05 312.06 320.09 312.06 304.04 268.92 302.56 269.86 302.56 312.06 299.04 312.06 299.04 263.94 306.37 263.94 323.1 309.72 339.84 263.94 347.02 263.94 347.02 312.06 343.51 312.06"/>
  <path class="cls-1" d="M399.1,312.06l-12.93-20.47h-12.86v20.47h-3.59v-48.12h19.25c9.49,0,15.15,4.91,15.15,13.14v1.29c0,7.25-4.15,11.85-11.7,12.94l-2.21.32,13.07,20.42h-4.19ZM373.3,288.87h15.37c7.33,0,11.71-3.92,11.71-10.49v-1.29c0-6.52-4.38-10.42-11.71-10.42h-15.37v22.2Z"/>
  <polygon class="cls-1" points="582.54 312.06 582.54 266.66 567.02 266.66 567.02 263.94 601.78 263.94 601.78 266.66 586.2 266.66 586.2 312.06 582.54 312.06"/>
  <rect class="cls-1" x="620.39" y="263.94" width="3.66" height="48.12"/>
  <polygon class="cls-1" points="275.71 312.06 270.5 297.06 254.31 297.06 255.57 293.4 269.23 293.4 259.59 265.63 243.63 312.06 239.95 312.06 257.24 263.94 262.17 263.94 279.46 312.06 275.71 312.06"/>
  <polygon class="cls-1" points="554.71 312.06 549.5 297.06 533.31 297.06 534.57 293.4 548.23 293.4 538.59 265.63 522.63 312.06 518.95 312.06 536.24 263.94 541.17 263.94 558.46 312.06 554.71 312.06"/>
  <polygon class="cls-1" points="419.42 312.06 436.71 263.94 439.58 263.94 438.38 267.61 423.1 312.06 419.42 312.06"/>
  <polygon class="cls-1" points="455.18 312.06 441.34 272.18 442.75 268.07 442.93 267.51 458.93 312.06 455.18 312.06"/>
  <polygon class="cls-1" points="488.78 312.06 489.97 308.39 505.25 263.94 508.93 263.94 491.65 312.06 488.78 312.06"/>
  <polygon class="cls-1" points="469.42 263.94 473.18 263.94 487.02 303.82 485.61 307.93 485.43 308.49 469.42 263.94"/>
</svg>